<svg width="2222" height="2500" viewBox="0 0 256 288" xmlns="http://www.w3.org/2000/svg" preserveAspectRatio="xMidYMid"><path d="M152.576 32.963l59.146 34.15a25.82 25.82 0 0 1 5.818-4.604c12.266-7.053 27.912-2.866 35.037 9.4 7.052 12.268 2.865 27.913-9.402 35.038a25.698 25.698 0 0 1-6.83 2.72v68.325a25.7 25.7 0 0 1 6.757 2.702c12.34 7.125 16.527 22.77 9.402 35.038-7.052 12.266-22.77 16.453-35.038 9.402a25.464 25.464 0 0 1-6.34-5.147l-58.786 33.94a25.67 25.67 0 0 1 1.295 8.08c0 14.103-11.458 25.636-25.635 25.636-14.177 0-25.635-11.46-25.635-25.636 0-2.52.362-4.954 1.037-7.253l-59.13-34.14a25.824 25.824 0 0 1-5.738 4.52c-12.34 7.05-27.986 2.864-35.038-9.402-7.05-12.267-2.864-27.913 9.402-35.038a25.71 25.71 0 0 1 6.758-2.703v-68.324a25.698 25.698 0 0 1-6.83-2.72C.557 99.898-3.63 84.178 3.422 71.91c7.052-12.266 22.77-16.453 35.037-9.4a25.82 25.82 0 0 1 5.79 4.574l59.163-34.16a25.707 25.707 0 0 1-1.048-7.29C102.365 11.46 113.823 0 128 0c14.177 0 25.635 11.46 25.635 25.635 0 2.548-.37 5.007-1.06 7.328zm-6.162 10.522l59.287 34.23a25.6 25.6 0 0 0 2.438 19.83c3.61 6.28 9.488 10.44 16.013 12.063v68.41c-.332.08-.663.17-.992.264L145.725 44.17c.234-.224.464-.452.69-.684zm-36.123.7l-77.43 134.11a25.824 25.824 0 0 0-1.01-.27v-68.417c6.524-1.622 12.403-5.784 16.012-12.062a25.6 25.6 0 0 0 2.427-19.87l59.27-34.22c.238.248.482.49.73.728zm24.873 6.075l77.414 134.08a25.492 25.492 0 0 0-4.513 5.757 25.7 25.7 0 0 0-2.702 6.758H50.64a25.71 25.71 0 0 0-2.704-6.758 25.825 25.825 0 0 0-4.506-5.724l77.43-134.107A25.715 25.715 0 0 0 128 51.27c2.487 0 4.89-.352 7.163-1.01zm11.795 194.478l58.902-34.008a25.865 25.865 0 0 1-.473-1.682H50.607c-.082.333-.17.663-.266.992l59.19 34.175a25.558 25.558 0 0 1 18.47-7.842 25.564 25.564 0 0 1 18.958 8.365z" fill-rule="evenodd"/></svg>