<svg width="256" height="140" viewBox="0 0 256 140" xmlns="http://www.w3.org/2000/svg" preserveAspectRatio="xMidYMid"><path d="M78.066 92.588c12.818 0 23.21-10.39 23.21-23.21 0-12.817-10.392-23.208-23.21-23.208-12.818 0-23.21 10.39-23.21 23.21 0 12.817 10.392 23.208 23.21 23.208zM23.21 139.005c12.817 0 23.208-10.39 23.208-23.21 0-12.816-10.39-23.207-23.21-23.207C10.392 92.588 0 102.978 0 115.796c0 12.818 10.39 23.21 23.21 23.21zm209.58 0c12.82 0 23.21-10.39 23.21-23.21 0-12.816-10.39-23.207-23.21-23.207-12.817 0-23.208 10.39-23.208 23.208 0 12.818 10.39 23.21 23.21 23.21z" fill="#000"/><path d="M156.565 70.357c-.742-7.754-1.12-14.208-7.06-18.744-7.522-5.744-16.044-2.017-26.54-5.806C112.65 43.312 105 34.155 105 23.24 105 10.404 115.578 0 128.626 0c9.665 0 17.974 5.707 21.634 13.883 5.6 10.64 1.96 21.467 8.998 26.92 8.333 6.46 19.568 1.73 32.104 7.85 4.028 1.85 7.438 4.785 9.84 8.424 2.403 3.638 3.798 7.98 3.798 12.64 0 10.916-7.65 20.074-17.964 22.57-10.497 3.788-19.02.06-26.54 5.805-8.46 6.46-3.932 17.267-10.827 28.682-3.914 7.518-11.868 12.663-21.044 12.663-13.048 0-23.626-10.405-23.626-23.24 0-9.323 5.582-17.364 13.638-21.066 12.536-6.118 23.77-1.39 32.104-7.847 4.807-3.726 5.823-9.473 5.823-16.926z" fill="#D0021B"/></svg>