<svg height="64.013" viewBox="0 0 64.02 64.013" width="64.02" xmlns="http://www.w3.org/2000/svg"><path d="M38 36.013l-6 6-4 4v6l-6 10 4 2 14-14-2-14zm-10-10l-14-2-14 14 2 4 10-6h6l4-4 6-6z" fill-rule="evenodd" clip-rule="evenodd" fill="#CCC"/><path d="M10 44.013c-3.94 5.748-9.974 12.835-10 16-.02 2.403 1.576 4.02 4 4 3.217-.027 10.01-6.03 16-10l-10-10z" fill="#FC6"/><path d="M16 42.013c-3.94 5.748-12 12.835-12 16 0 2.09.2 2 2 2 3.217 0 10.01-8.03 16-12l-6-6z" fill="#ED7161"/><path d="M60 .013c-6.286.39-17.138 1.137-30 14-9.46 9.46-17.76 23.218-21.652 32.347l9.367 9.367C26.793 51.874 40.46 43.553 50 34.013c12.78-12.78 13.507-23.67 14-30 .22-2.826-1.386-4.162-4-4z" fill="#387AA7"/><path d="M60 .013c-6.286.39-17.138 1.137-30 14-7.724 7.723-14.664 18.307-19.078 26.905l12.235 12.235C31.703 48.75 42.222 41.79 50 34.013c12.78-12.78 13.507-23.67 14-30 .22-2.826-1.386-4.162-4-4z" fill="#48A0DC"/><circle cx="48" cy="16.013" r="8" fill="#4D4D4D"/><circle cx="48" cy="16.013" r="4" fill="#FFF"/></svg>